<svg id="visual" viewBox="0 0 900 600" width="900" height="600" xmlns="http://www.w3.org/2000/svg" xmlns:xlink="http://www.w3.org/1999/xlink" version="1.1"><rect x="0" y="0" width="900" height="600" fill="#042c2e"></rect><path d="M0 480L30 475.5C60 471 120 462 180 468.8C240 475.7 300 498.3 360 509.7C420 521 480 521 540 514.7C600 508.3 660 495.7 720 485.8C780 476 840 469 870 465.5L900 462L900 601L870 601C840 601 780 601 720 601C660 601 600 601 540 601C480 601 420 601 360 601C300 601 240 601 180 601C120 601 60 601 30 601L0 601Z" fill="#091a19" stroke-linecap="round" stroke-linejoin="miter"></path></svg>